<svg width="170" height="30" viewBox="0 0 170 30" fill="none" xmlns="http://www.w3.org/2000/svg">
<path d="M42.178 25.308C40.9273 25.308 39.7607 25.0747 38.678 24.608C37.5953 24.1413 36.6433 23.4553 35.822 22.55C35.01 21.6353 34.3753 20.52 33.918 19.204C33.47 17.8787 33.246 16.362 33.246 14.654C33.246 12.946 33.47 11.434 33.918 10.118C34.3753 8.802 35.01 7.696 35.822 6.8C36.634 5.89467 37.5813 5.21333 38.664 4.756C39.756 4.28933 40.9273 4.056 42.178 4.056C43.4473 4.056 44.6233 4.28933 45.706 4.756C46.798 5.21333 47.75 5.89467 48.562 6.8C49.374 7.696 50.004 8.802 50.452 10.118C50.9093 11.434 51.138 12.946 51.138 14.654C51.138 16.362 50.9093 17.8787 50.452 19.204C49.9947 20.52 49.3553 21.6353 48.534 22.55C47.722 23.4553 46.7747 24.1413 45.692 24.608C44.6093 25.0747 43.438 25.308 42.178 25.308ZM42.178 22.27C43.1487 22.27 44.026 22.0087 44.81 21.486C45.594 20.954 46.2147 20.128 46.672 19.008C47.1387 17.888 47.372 16.4367 47.372 14.654C47.372 12.862 47.1387 11.4153 46.672 10.314C46.2053 9.20333 45.58 8.39133 44.796 7.878C44.012 7.36467 43.1393 7.108 42.178 7.108C41.2353 7.108 40.3673 7.36467 39.574 7.878C38.79 8.39133 38.16 9.20333 37.684 10.314C37.2173 11.4153 36.984 12.862 36.984 14.654C36.984 16.446 37.2173 17.902 37.684 19.022C38.16 20.142 38.79 20.9633 39.574 21.486C40.3673 22.0087 41.2353 22.27 42.178 22.27ZM60.2251 25.308C59.3384 25.308 58.4938 25.21 57.6911 25.014C56.8978 24.818 56.1884 24.524 55.5631 24.132C54.9471 23.74 54.4571 23.2547 54.0931 22.676C53.7384 22.088 53.5611 21.4113 53.5611 20.646C53.5611 20.59 53.5611 20.534 53.5611 20.478C53.5611 20.422 53.5611 20.3707 53.5611 20.324H57.2291C57.2291 20.3707 57.2291 20.4127 57.2291 20.45C57.2291 20.478 57.2291 20.52 57.2291 20.576C57.2291 21.1827 57.5044 21.64 58.0551 21.948C58.6151 22.2467 59.3758 22.396 60.3371 22.396C60.8598 22.396 61.3498 22.34 61.8071 22.228C62.2738 22.116 62.6471 21.9433 62.9271 21.71C63.2164 21.4767 63.3611 21.178 63.3611 20.814C63.3611 20.226 63.0578 19.806 62.4511 19.554C61.8538 19.302 60.9111 19.0733 59.6231 18.868C58.9138 18.7467 58.2138 18.5833 57.5231 18.378C56.8324 18.1727 56.2024 17.8973 55.6331 17.552C55.0731 17.2067 54.6204 16.7773 54.2751 16.264C53.9391 15.7507 53.7711 15.1253 53.7711 14.388C53.7711 13.408 54.0604 12.5867 54.6391 11.924C55.2271 11.252 56.0111 10.7433 56.9911 10.398C57.9804 10.0527 59.0678 9.88 60.2531 9.88C61.3918 9.88 62.4511 10.0667 63.4311 10.44C64.4111 10.8133 65.1998 11.35 65.7971 12.05C66.4038 12.75 66.7071 13.5947 66.7071 14.584C66.7071 14.6213 66.7071 14.6633 66.7071 14.71C66.7071 14.7473 66.7071 14.78 66.7071 14.808H63.0671C63.0671 14.78 63.0671 14.752 63.0671 14.724C63.0671 14.696 63.0671 14.6633 63.0671 14.626C63.0671 14.1967 62.9318 13.8467 62.6611 13.576C62.3904 13.3053 62.0404 13.1047 61.6111 12.974C61.1818 12.8433 60.7291 12.778 60.2531 12.778C59.8331 12.778 59.3991 12.8247 58.9511 12.918C58.5031 13.002 58.1298 13.156 57.8311 13.38C57.5324 13.5947 57.3831 13.898 57.3831 14.29C57.3831 14.6633 57.5371 14.9667 57.8451 15.2C58.1531 15.4333 58.5824 15.6293 59.1331 15.788C59.6838 15.9373 60.3184 16.0727 61.0371 16.194C61.7184 16.306 62.4044 16.46 63.0951 16.656C63.7951 16.852 64.4344 17.1133 65.0131 17.44C65.5918 17.7667 66.0584 18.196 66.4131 18.728C66.7771 19.2507 66.9591 19.8993 66.9591 20.674C66.9591 21.4953 66.7724 22.1953 66.3991 22.774C66.0258 23.3527 65.5171 23.8333 64.8731 24.216C64.2384 24.5893 63.5198 24.8647 62.7171 25.042C61.9144 25.2193 61.0838 25.308 60.2251 25.308ZM71.3684 18.756V16.138H81.7704L81.3504 16.838C81.3504 16.782 81.3504 16.7213 81.3504 16.656C81.3504 16.5813 81.3504 16.5207 81.3504 16.474C81.3504 15.83 81.2058 15.228 80.9164 14.668C80.6271 14.0987 80.1884 13.6413 79.6004 13.296C79.0124 12.9413 78.2658 12.764 77.3604 12.764C76.4644 12.764 75.6851 12.9553 75.0224 13.338C74.3691 13.7113 73.8604 14.2527 73.4964 14.962C73.1418 15.6713 72.9644 16.5207 72.9644 17.51C72.9644 18.5273 73.1371 19.4047 73.4824 20.142C73.8278 20.87 74.3318 21.43 74.9944 21.822C75.6664 22.2047 76.4831 22.396 77.4444 22.396C78.0978 22.396 78.6624 22.3353 79.1384 22.214C79.6144 22.0927 80.0018 21.9293 80.3004 21.724C80.6084 21.5093 80.8371 21.2807 80.9864 21.038C81.1451 20.7953 81.2384 20.5527 81.2664 20.31H84.9344C84.8784 20.9353 84.6684 21.5467 84.3044 22.144C83.9498 22.732 83.4504 23.2687 82.8064 23.754C82.1624 24.23 81.3784 24.6127 80.4544 24.902C79.5398 25.182 78.4944 25.322 77.3184 25.322C75.7224 25.322 74.3271 24.9953 73.1324 24.342C71.9378 23.6887 71.0044 22.7787 70.3324 21.612C69.6698 20.4453 69.3384 19.1107 69.3384 17.608C69.3384 16.068 69.6744 14.7193 70.3464 13.562C71.0278 12.4047 71.9704 11.504 73.1744 10.86C74.3784 10.2067 75.7598 9.88 77.3184 9.88C78.9238 9.88 80.3098 10.2067 81.4764 10.86C82.6524 11.5133 83.5578 12.4233 84.1924 13.59C84.8271 14.7473 85.1444 16.096 85.1444 17.636C85.1444 17.832 85.1398 18.042 85.1304 18.266C85.1211 18.49 85.1071 18.6533 85.0884 18.756H71.3684ZM94.848 25.28C94.316 25.28 93.7746 25.2287 93.224 25.126C92.6733 25.0233 92.1693 24.832 91.712 24.552C91.2546 24.272 90.886 23.8613 90.606 23.32C90.326 22.7787 90.186 22.0647 90.186 21.178C90.186 20.9727 90.186 20.7673 90.186 20.562C90.186 20.3473 90.186 20.128 90.186 19.904V13.072H86.672V10.132H88.1C88.5853 10.132 88.968 10.1133 89.248 10.076C89.528 10.0293 89.7333 9.92667 89.864 9.768C89.9946 9.60933 90.0786 9.362 90.116 9.026C90.1626 8.68067 90.186 8.20467 90.186 7.598V5.232H93.882V10.132H98.306V13.072H93.882V19.036C93.882 19.2133 93.882 19.3907 93.882 19.568C93.882 19.736 93.882 19.8993 93.882 20.058C93.882 20.7487 93.966 21.304 94.134 21.724C94.302 22.144 94.6986 22.354 95.324 22.354C95.6226 22.354 95.9026 22.326 96.164 22.27C96.4346 22.214 96.6353 22.158 96.766 22.102V24.986C96.5886 25.0513 96.332 25.1167 95.996 25.182C95.66 25.2473 95.2773 25.28 94.848 25.28ZM107.984 25.294C106.416 25.294 105.035 24.9673 103.84 24.314C102.645 23.6513 101.707 22.7367 101.026 21.57C100.354 20.4033 100.018 19.0687 100.018 17.566C100.018 16.054 100.354 14.724 101.026 13.576C101.707 12.4187 102.645 11.5133 103.84 10.86C105.035 10.2067 106.416 9.88 107.984 9.88C109.552 9.88 110.933 10.2067 112.128 10.86C113.323 11.5133 114.256 12.4187 114.928 13.576C115.609 14.724 115.95 16.054 115.95 17.566C115.95 19.0687 115.609 20.4033 114.928 21.57C114.256 22.7367 113.323 23.6513 112.128 24.314C110.933 24.9673 109.552 25.294 107.984 25.294ZM107.984 22.284C108.833 22.284 109.575 22.088 110.21 21.696C110.845 21.304 111.339 20.758 111.694 20.058C112.049 19.3487 112.226 18.518 112.226 17.566C112.226 16.614 112.049 15.7927 111.694 15.102C111.339 14.402 110.845 13.8607 110.21 13.478C109.575 13.0953 108.833 12.904 107.984 12.904C107.144 12.904 106.402 13.0953 105.758 13.478C105.123 13.8607 104.629 14.402 104.274 15.102C103.919 15.7927 103.742 16.614 103.742 17.566C103.742 18.518 103.919 19.3487 104.274 20.058C104.629 20.758 105.123 21.304 105.758 21.696C106.402 22.088 107.144 22.284 107.984 22.284ZM122.594 22.06H131.764V25H118.45V22.438L127.788 7.276L127.816 7.29H119.094V4.35H131.89V6.87L122.594 22.018V22.06ZM135.9 18.756V16.138H146.302L145.882 16.838C145.882 16.782 145.882 16.7213 145.882 16.656C145.882 16.5813 145.882 16.5207 145.882 16.474C145.882 15.83 145.737 15.228 145.448 14.668C145.158 14.0987 144.72 13.6413 144.132 13.296C143.544 12.9413 142.797 12.764 141.892 12.764C140.996 12.764 140.216 12.9553 139.554 13.338C138.9 13.7113 138.392 14.2527 138.028 14.962C137.673 15.6713 137.496 16.5207 137.496 17.51C137.496 18.5273 137.668 19.4047 138.014 20.142C138.359 20.87 138.863 21.43 139.526 21.822C140.198 22.2047 141.014 22.396 141.976 22.396C142.629 22.396 143.194 22.3353 143.67 22.214C144.146 22.0927 144.533 21.9293 144.832 21.724C145.14 21.5093 145.368 21.2807 145.518 21.038C145.676 20.7953 145.77 20.5527 145.798 20.31H149.466C149.41 20.9353 149.2 21.5467 148.836 22.144C148.481 22.732 147.982 23.2687 147.338 23.754C146.694 24.23 145.91 24.6127 144.986 24.902C144.071 25.182 143.026 25.322 141.85 25.322C140.254 25.322 138.858 24.9953 137.664 24.342C136.469 23.6887 135.536 22.7787 134.864 21.612C134.201 20.4453 133.87 19.1107 133.87 17.608C133.87 16.068 134.206 14.7193 134.878 13.562C135.559 12.4047 136.502 11.504 137.706 10.86C138.91 10.2067 140.291 9.88 141.85 9.88C143.455 9.88 144.841 10.2067 146.008 10.86C147.184 11.5133 148.089 12.4233 148.724 13.59C149.358 14.7473 149.676 16.096 149.676 17.636C149.676 17.832 149.671 18.042 149.662 18.266C149.652 18.49 149.638 18.6533 149.62 18.756H135.9ZM163.225 25V18.406C163.225 18.0327 163.225 17.706 163.225 17.426C163.225 17.1367 163.225 16.8753 163.225 16.642C163.225 15.97 163.127 15.368 162.931 14.836C162.745 14.2947 162.418 13.87 161.951 13.562C161.494 13.254 160.859 13.1 160.047 13.1C159.338 13.1 158.708 13.2727 158.157 13.618C157.607 13.954 157.173 14.4207 156.855 15.018C156.547 15.606 156.393 16.2873 156.393 17.062L155.147 16.292C155.147 15.0507 155.427 13.9493 155.987 12.988C156.557 12.0173 157.317 11.2567 158.269 10.706C159.221 10.1553 160.276 9.88 161.433 9.88C162.628 9.88 163.631 10.1133 164.443 10.58C165.265 11.0467 165.881 11.7093 166.291 12.568C166.711 13.4267 166.921 14.4347 166.921 15.592C166.921 16.04 166.921 16.544 166.921 17.104C166.921 17.664 166.921 18.2147 166.921 18.756V25H163.225ZM152.711 25V10.132H156.393V25H152.711Z" fill="#171923"/>
<path d="M14.1018 0H9.70653C6.6163 0 3.83545 1.88051 2.70105 4.755C1.75791 7.14488 0.800021 9.5991 0.355245 10.8148C-1.67327 18.9585 5.5672 21.4993 7.39139 21.8251C10.8319 22.5722 13.4751 20.5646 14.4975 19.2015C14.6341 19.0193 14.4588 18.797 14.2364 18.8462C9.09203 19.986 7.8014 15.5713 8.56408 13.8117L14.1018 0Z" fill="#0D6BF8"/>
<path d="M11.1401 30H15.5354C18.6256 30 21.4065 28.1195 22.5409 25.245C23.484 22.8551 24.4419 20.4009 24.8867 19.1852C26.9152 11.0415 19.6747 8.50068 17.8505 8.17493C14.41 7.42778 11.7668 9.43538 10.7444 10.7985C10.6078 10.9807 10.7831 11.203 11.0055 11.1538C16.1499 10.014 17.4405 14.4287 16.6778 16.1883L11.1401 30Z" fill="#04A982"/>
</svg>
